<svg width="190" height="65" viewBox="0 0 190 65" fill="none" xmlns="http://www.w3.org/2000/svg">
<path d="M18.1648 15H41.0132C43.7897 15 45.1779 16.429 45.1779 19.287V42.8059C45.1779 45.6639 43.7897 47.0929 41.0132 47.0929H18.1648C15.3883 47.0929 14 45.6639 14 42.8059V19.287C14 16.429 15.3883 15 18.1648 15Z" fill="#F0912E"/>
<path d="M18.1648 19.8223H41.0132C43.7897 19.8223 45.1779 21.2513 45.1779 24.1093V42.8053C45.1779 45.6633 43.7897 47.0923 41.0132 47.0923H18.1648C15.3883 47.0923 14 45.6633 14 42.8053V24.1093C14 21.2513 15.3883 19.8223 18.1648 19.8223Z" fill="#D53423"/>
<path d="M19.7842 45.4875L20.9411 42.2127H21.4038L22.5607 45.4875H22.0401L21.8087 44.7135H20.6518L20.3626 45.4875H19.7842ZM21.1724 42.8081L20.7097 44.2371H21.5773L21.1724 42.8081ZM22.8499 45.4875V42.2127H23.2548V45.4875H22.8499ZM23.7754 45.4875V43.2249H24.1803V45.547L23.7754 45.4875ZM24.0068 41.8555C23.9489 42.1532 23.7176 42.3913 23.4284 42.4509C23.7754 42.4509 24.0068 42.7486 24.0068 43.1058C24.0068 43.1058 24.0646 42.5104 24.5852 42.5104C24.5852 42.4509 24.0068 42.3318 24.0068 41.8555ZM24.7588 45.4875V42.2127H26.6098V42.6295H25.1637V43.5822H26.4362V43.999H25.1637V45.0112H26.7255V45.428L24.7588 45.4875ZM26.899 45.4875L27.7667 44.2967L26.9568 43.1654H27.5353L27.998 43.9394L28.4608 43.1654H29.0392L28.2873 44.2967L29.1549 45.547H28.5765L27.998 44.6539L27.4196 45.4875H26.899ZM29.3284 44.3562H29.7334V46.6783H29.3284V44.3562Z" fill="white"/>
<path d="M30.4856 43.0472C29.8494 43.0472 29.2709 43.5831 29.2709 44.2976C29.2709 44.9525 29.7915 45.5479 30.4856 45.5479C31.1219 45.5479 31.7004 45.0121 31.7004 44.2976C31.7004 43.5831 31.1798 43.0472 30.4856 43.0472ZM30.4856 45.1312C30.0229 45.1312 29.6758 44.7739 29.6758 44.2976C29.6758 43.8212 30.0229 43.464 30.4856 43.464C30.9484 43.464 31.2955 43.8212 31.2955 44.2976C31.2955 44.7739 30.9484 45.1312 30.4856 45.1312ZM31.9896 45.4884V43.1067H32.3945V43.6426C32.4523 43.5235 32.5102 43.4044 32.6259 43.2854C32.7416 43.1663 32.9151 43.1067 33.0308 43.1067H33.2043V43.5831H32.9729C32.7994 43.5831 32.6259 43.6426 32.568 43.7617C32.4523 43.9403 32.3945 44.1189 32.3945 44.3571V45.4289H31.9896V45.4884ZM35.0553 45.3098C34.8239 45.4289 34.5926 45.5479 34.3612 45.4884C34.072 45.4884 33.7249 45.3693 33.4935 45.1312C33.0886 44.6548 33.0886 43.8808 33.4935 43.4044C33.7249 43.1663 34.0141 43.0472 34.3033 43.0472C34.5926 43.0472 34.9396 43.1663 35.1132 43.4044C35.3445 43.6426 35.4024 43.9403 35.4024 44.238C35.4024 44.2976 35.4024 44.3571 35.4024 44.4167H33.6671C33.6671 44.5953 33.7249 44.7739 33.8406 44.893C33.9563 45.0121 34.1298 45.1312 34.3033 45.0716C34.5347 45.0716 34.7661 44.9525 34.9396 44.7739L35.171 45.1312L35.0553 45.3098ZM33.7249 44.0594H34.9396C34.9396 43.8808 34.8818 43.7617 34.7661 43.6426C34.6504 43.5235 34.4769 43.464 34.3612 43.464C34.0141 43.464 33.7249 43.7022 33.7249 44.0594ZM37.1956 43.3449L36.9642 43.6426C36.8485 43.5235 36.6171 43.464 36.4436 43.464C36.2122 43.464 36.0965 43.5235 36.0965 43.7022C36.0965 43.8808 36.1544 43.9403 36.27 43.9403L36.7328 44.0594C36.9063 44.1189 37.022 44.1785 37.1956 44.238C37.3112 44.3571 37.4269 44.5357 37.3691 44.7144C37.3691 44.9525 37.3112 45.1907 37.0799 45.3098C36.9063 45.4289 36.675 45.4884 36.5014 45.4884C36.27 45.4884 36.0387 45.4289 35.8651 45.3098C35.7495 45.1907 35.6916 45.0121 35.6916 44.8334L36.0387 44.6548C36.0387 44.893 36.2122 45.0716 36.4436 45.0716H36.5014C36.7906 45.0716 36.9642 44.9525 36.9642 44.7739C36.9642 44.6548 36.8485 44.5357 36.6171 44.4762C36.3857 44.4167 36.2122 44.3571 36.0387 44.2976C35.8073 44.1785 35.6916 43.9403 35.6916 43.7022C35.6916 43.464 35.8073 43.2854 35.9808 43.1663C36.1544 43.0472 36.3279 42.9877 36.5593 43.0472C36.7328 43.0472 36.9642 43.1067 37.1377 43.2258M39.1622 43.3449L38.9309 43.6426C38.8152 43.5235 38.5838 43.464 38.4103 43.464C38.1789 43.464 38.0632 43.5235 38.0632 43.7022C38.0632 43.8808 38.1211 43.9403 38.2367 43.9403L38.6995 44.0594C38.873 44.1189 38.9887 44.1785 39.1622 44.238C39.2779 44.3571 39.3936 44.5357 39.3358 44.7144C39.3358 44.9525 39.2779 45.1907 39.0466 45.3098C38.873 45.4289 38.6417 45.4884 38.4681 45.4884C38.2367 45.4884 38.0054 45.4289 37.8318 45.3098C37.7161 45.1907 37.6583 45.0121 37.6583 44.8334L38.0054 44.6548C38.0054 44.893 38.1789 45.0716 38.4103 45.0716H38.4681C38.7573 45.0716 38.9309 44.9525 38.9309 44.7739C38.9309 44.6548 38.8152 44.5357 38.5838 44.4762C38.3524 44.4167 38.1789 44.3571 38.0054 44.2976C37.774 44.1785 37.6583 43.9403 37.6583 43.7022C37.6583 43.464 37.7161 43.2854 37.9475 43.1663C38.1211 43.0472 38.2946 42.9877 38.526 43.0472C38.6995 43.0472 38.9309 43.1067 39.1044 43.2258M37.8897 27.5664C37.8897 32.2702 34.1877 36.6763 29.5601 36.6763C24.9326 36.6763 21.2306 32.3297 21.2306 27.5664H19.2061C19.2061 33.461 23.8914 38.7602 29.5601 38.7602C35.2289 38.7602 39.9142 33.4015 39.9142 27.5664H37.8897Z" fill="white"/>
<path d="M87.3638 40.9616V20.1816H99.2796V22.8015H89.8511V29.1724H98.3541V31.7922H89.8511V38.2823H99.9738V40.9021H87.3638V40.9616ZM112.468 40.9616L108.361 35.4243L104.254 40.9616H101.362L106.973 33.5785L101.073 25.9572H104.312L108.361 31.6732L112.468 25.9572H115.65L110.039 33.5785L115.36 40.9616H112.468ZM119.294 38.7586V48.9997H116.806V33.638C116.806 29.7083 119.699 25.5999 124.21 25.5999C128.78 25.5999 132.193 28.577 132.193 33.4594C132.193 38.2227 128.722 41.4975 124.731 41.4975C122.88 41.4975 120.277 40.6639 119.294 38.7586ZM129.706 33.4594C129.706 30.1251 127.623 28.1007 123.863 28.3388C122.07 28.3984 119.294 29.7678 119.525 34.5311C119.583 36.0792 121.145 38.9968 124.557 38.9968C127.508 38.9968 129.706 37.2701 129.706 33.4594ZM134.391 40.9616V25.9572H136.878V27.5648C138.093 26.1358 139.944 25.6595 141.911 25.6595V28.3984C141.621 28.3388 138.671 27.9816 136.878 31.9113V41.0212H134.391V40.9616ZM142.547 33.4594C142.547 29.1129 145.555 25.5999 149.72 25.5999C154.926 25.5999 156.834 29.1129 156.834 33.638V34.8884H145.266C145.439 37.7464 147.926 39.2349 150.182 39.1754C151.86 39.1158 153.017 38.6395 154.231 37.3891L155.851 39.1158C154.347 40.6044 152.438 41.6166 150.067 41.6166C145.728 41.4975 142.547 38.1632 142.547 33.4594ZM149.546 28.1007C147.174 28.1007 145.381 30.1846 145.266 32.5067H154.231C154.231 30.3037 152.67 28.1007 149.546 28.1007ZM158.107 38.8777L159.9 37.2105C159.842 37.2105 160.826 38.2227 160.941 38.2823C161.346 38.6395 161.809 38.8777 162.33 39.0563C163.891 39.4731 166.726 39.354 166.957 37.151C167.073 35.9006 166.147 35.2456 165.164 34.7693C163.834 34.293 162.387 34.1144 161.057 33.4594C159.553 32.8044 158.57 31.6136 158.57 29.8869C158.57 25.3618 164.817 24.6473 167.651 26.7312C167.767 26.8503 169.155 28.1602 169.097 28.1602L167.304 29.6487C166.379 28.5175 165.569 27.9816 163.602 27.9816C162.619 27.9816 161.288 28.3984 161.057 29.4701C160.71 30.9587 162.33 31.4945 163.429 31.8518C164.875 32.209 166.437 32.4472 167.709 33.2808C169.444 34.4121 169.849 36.7937 169.213 38.699C168.519 40.7235 166.321 41.557 164.412 41.6166C162.098 41.7357 160.132 41.0212 158.512 39.2945C158.396 39.1754 158.107 38.8777 158.107 38.8777ZM170.833 38.8777L172.626 37.2105C172.568 37.2105 173.551 38.2227 173.667 38.2823C174.072 38.6395 174.535 38.8777 175.055 39.0563C176.617 39.4731 179.451 39.354 179.683 37.151C179.799 35.9006 178.873 35.2456 177.89 34.7693C176.559 34.293 175.113 34.1144 173.783 33.4594C172.279 32.8044 171.295 31.6136 171.295 29.8869C171.295 25.3618 177.543 24.6473 180.377 26.7312C180.493 26.8503 181.881 28.1602 181.823 28.1602L180.03 29.6487C179.104 28.5175 178.295 27.9816 176.386 27.9816C175.402 27.9816 174.072 28.3984 173.841 29.4701C173.494 30.9587 175.113 31.4945 176.212 31.8518C177.658 32.209 179.22 32.4472 180.493 33.2808C182.228 34.4121 182.691 36.7937 181.997 38.699C181.245 40.7235 179.104 41.557 177.196 41.6166C174.882 41.7357 172.915 41.0212 171.295 39.2945C171.122 39.1754 170.833 38.8777 170.833 38.8777ZM182.575 25.9572V24.3495H181.997V24.0518H183.443V24.3495H182.922V25.9572H182.575ZM185.294 25.9572V24.4686L184.773 25.9572H184.657L184.137 24.4686V25.9572H183.848V24.0518H184.31L184.773 25.3618L185.236 24.0518H185.699V25.9572H185.294Z" fill="#E43225"/>
<path d="M68.0264 40.9633L66.2333 36.0214H56.4576L54.6644 40.9633H52.0615L59.9283 20.1833H62.7626L70.5137 40.9633H68.0264ZM61.2587 23.1604L57.5566 33.4611H65.1921L61.2587 23.1604ZM72.1333 40.9633V20.1833H74.6785V40.9633H72.1333ZM78.4383 40.9633V26.2566H80.9835V40.9633H78.4383ZM83.4129 21.4932V21.2551C81.5041 21.1955 79.9423 19.5879 79.8844 17.623H79.5374C79.4795 19.5879 77.9177 21.1955 76.0089 21.2551V21.4932C77.9177 21.5528 79.4795 23.1604 79.5374 25.1253H79.8844C79.8844 23.1604 81.4462 21.5528 83.4129 21.4932Z" fill="#F7971D"/>
</svg>
