<svg width="190" height="65" viewBox="0 0 190 65" fill="none" xmlns="http://www.w3.org/2000/svg">
<g clip-path="url(#clip0_24981_85601)">
<path d="M73.8041 23.6626C74.3493 21.7739 76.053 20.4249 78.0293 20.3574H78.0974C81.0278 20.3574 82.2544 22.381 82.9359 25.1466V39.0421H78.5745V26.9004C78.4382 25.8886 77.6885 25.0117 76.6663 24.8094C75.5078 24.7419 74.4856 25.5513 74.213 26.6981V38.8397H69.8515V26.6306C69.5789 25.6863 68.8974 24.9443 67.9434 24.7419C66.5123 24.7419 65.3538 25.8212 65.2856 27.2377V27.3051V39.1095H60.9241V20.8971H65.2856V23.9999C65.7626 22.0438 67.4663 20.5598 69.5108 20.3574C71.4871 20.4249 73.1908 21.7739 73.8041 23.6626ZM117.623 29.9358C117.623 24.5395 120.962 20.3574 125.119 20.3574C129.14 20.3574 132.616 24.607 132.616 29.9358C132.616 35.2647 129.277 39.5142 125.119 39.5142C120.962 39.5142 117.623 35.3321 117.623 29.9358ZM139.294 23.9999C139.771 22.0438 141.475 20.5598 143.519 20.3574C145.905 20.4249 147.813 22.2461 148.017 24.5395V38.9072H143.996V26.6306C143.724 25.6863 142.974 24.9443 142.02 24.7419C140.589 24.7419 139.431 25.8212 139.362 27.2377V27.3051V39.1095H135.001V20.8971H139.362C139.294 20.8971 139.294 23.9999 139.294 23.9999ZM58.8116 36.0067L57.0397 34.2529V24.3372C57.0397 22.2461 53.3597 20.3574 50.5657 20.3574C46.5449 20.3574 43.4101 22.9881 43.2738 26.2933H47.499C47.7716 24.9443 48.9301 23.9999 50.2931 23.9999C51.5197 23.865 52.6101 24.8094 52.7464 26.0235C52.7464 26.091 52.7464 26.1584 52.7464 26.2259V27.8448H49.2027C48.3849 27.8448 47.499 27.9797 46.7494 28.3844C43.7509 29.5311 42.2516 32.8363 43.4101 35.7368V35.8043C44.8412 38.7048 48.3849 39.8515 51.2471 38.435C52.0649 38.0977 52.8145 37.5581 53.3597 36.8161L55.6086 39.0421L58.8116 36.0067ZM101.472 36.0067L99.7003 34.2529V24.3372C99.7003 22.2461 96.0203 20.3574 93.2263 20.3574C89.2737 20.3574 86.1389 22.9881 85.9344 26.2933H90.1596C90.4322 24.9443 91.5907 23.9999 92.9537 23.9999C94.1803 23.865 95.2707 24.8094 95.407 26.0235C95.407 26.091 95.407 26.1584 95.407 26.2259V27.8448H91.727C90.9092 27.8448 90.0233 28.0471 89.2737 28.3844C86.2752 29.5311 84.7759 32.8363 85.9344 35.8043C87.3655 38.7048 90.9092 39.8515 93.7714 38.435C93.7714 38.435 93.7714 38.435 93.8396 38.435C94.6574 38.0977 95.407 37.5581 95.9522 36.8161L98.2011 39.0421C98.1329 39.0421 101.472 36.0067 101.472 36.0067ZM110.127 24.5395H103.653V20.8971H115.715V24.2023L109.582 33.0387C110.74 33.1062 111.899 33.3085 113.057 33.5783C114.148 33.8481 115.238 34.2529 116.26 34.7925V38.435C114.148 37.7605 112.035 37.2883 109.786 37.0185C107.605 37.1534 105.425 37.6255 103.312 38.435V34.4552C103.448 34.3878 110.127 24.5395 110.127 24.5395ZM125.119 35.3996C126.346 35.3996 127.368 34.3878 127.368 33.1736V26.4282C127.368 25.2141 126.346 24.2023 125.119 24.2023H124.915C123.688 24.2023 122.666 25.2141 122.666 26.4282V33.1736C122.666 34.3878 123.688 35.3996 124.915 35.3996C124.983 35.3996 125.119 35.3996 125.119 35.3996ZM48.3168 35.1298C47.2946 33.8481 47.5671 32.0943 48.7938 31.15C48.7938 31.15 48.7938 31.15 48.862 31.15C49.2027 30.8127 49.6116 30.5429 50.0886 30.4755H52.7464V34.3203L52.4056 34.6576C51.3153 35.7368 49.5434 36.0067 48.3168 35.1298ZM91.1818 35.1298C90.2277 33.9156 90.4322 32.0943 91.727 31.15C92.0677 30.8127 92.4766 30.5429 92.9537 30.4755H95.6796V34.3203L95.4751 34.5227C94.3848 35.6694 92.6129 36.0067 91.1818 35.1298Z" fill="white"/>
<path d="M110.739 42.0096C110.398 41.2002 108.149 41.2002 103.924 42.0096H103.992C102.902 42.212 103.107 41.3351 103.311 41.1327C105.56 40.1883 107.877 39.5813 110.33 39.3789C112.238 39.3789 113.329 39.7162 113.329 41.1327C113.601 45.1125 110.603 48.8899 110.126 49.4295C109.649 49.9691 108.354 49.7668 108.899 48.8899C109.512 47.7432 111.284 43.2238 110.739 42.0096ZM85.7288 48.0804C76.2562 47.8781 66.9881 45.3148 58.7422 40.6605C58.197 40.5256 57.9244 40.5256 57.8563 40.6605C57.72 40.8629 57.9926 41.2676 58.6059 41.8747C63.717 46.9337 73.3259 51.0484 83.6844 52.1276C94.0428 53.1394 107.127 46.3941 108.218 45.5172C109.308 44.6403 109.649 43.0889 108.218 43.4261C107.945 43.4936 107.536 43.6959 106.991 43.9658C104.401 45.2474 98.4043 48.2153 85.7288 48.0804Z" fill="white"/>
</g>
<defs>
<clipPath id="clip0_24981_85601">
<rect width="104.948" height="31.8381" fill="white" transform="translate(43 20.3574)"/>
</clipPath>
</defs>
</svg>
