<svg width="190" height="65" viewBox="0 0 190 65" fill="none" xmlns="http://www.w3.org/2000/svg">
<path d="M136.972 27.6068C135.217 27.1333 133.441 27.1333 131.686 27.6068C129.065 28.3118 127.3 29.9847 126.736 32.6467C126.422 34.0987 126.36 35.6349 126.454 37.129C126.631 40.5275 128.731 42.9581 131.969 43.7156H132.104C132.23 43.7156 132.355 43.7998 132.48 43.7998H132.606C132.762 43.7998 132.95 43.884 133.149 43.884C133.786 43.9682 134.601 43.9997 135.269 43.884H135.374C138.726 43.7051 141.264 41.5797 142.006 38.318C142.413 36.5293 142.413 34.73 142.006 32.9308C141.379 30.111 139.687 28.3012 136.909 27.5542L136.961 27.5963L136.972 27.6068ZM137.191 37.4447C137.191 37.5499 137.191 37.6551 137.107 37.7603C136.773 39.2649 135.687 40.0751 134.235 40.012C132.689 39.9278 131.624 39.0229 131.467 37.4657C131.363 36.3188 131.342 35.1614 131.467 34.0146C131.613 32.2048 132.731 31.2263 134.413 31.2579C135.791 31.2579 136.773 32.068 137.128 33.4148C137.463 34.7511 137.222 37.1395 137.212 37.4447H137.191ZM143.928 19.6418V43.6525H148.983V36.3083L153.642 43.663H159L153.945 35.6665L159 27.712H153.642L148.983 35.0457V19.021L143.928 19.6418ZM90.0739 36.1926C90.0739 35.0773 90.0739 33.962 89.9067 32.8572C89.4785 29.8585 87.6611 27.954 84.726 27.4595C83.6084 27.2701 82.4177 27.2912 81.2792 27.3753C78.1562 27.6699 75.7956 29.627 75.3152 32.5731C75.0227 34.3618 74.9809 36.2557 75.2212 38.0444C75.5763 40.738 76.8819 42.4635 79.138 43.2842C80.1721 43.5999 85.2065 44.9256 89.6456 42.674L89.468 42.0216C89.2592 41.1378 89.0189 40.275 88.7787 39.4017V39.3175C88.7787 39.3175 88.6847 39.3175 88.5176 39.4017C88.3296 39.4859 88.1311 39.5174 87.9326 39.5806H87.8282C87.1493 39.77 86.1883 40.012 85.1752 40.1382C84.3291 40.2224 83.4622 40.2224 82.5953 40.1382C81.1852 39.9068 80.1094 39.1387 80.1616 37.35H90.0843V36.2031L90.0739 36.1926ZM85.5303 34.004H80.0676C80.0676 32.9098 80.2347 31.8892 81.1957 31.2684C82.2193 30.616 83.3578 30.5845 84.4127 31.1737C85.4885 31.7629 85.5616 32.8361 85.5408 34.004H85.5303ZM74.5109 42.4951C74.2916 41.6955 74.0409 40.8853 73.8006 40.1172L73.5709 39.2649C73.5709 39.2649 67.659 42.1268 66.7399 36.6871C66.6563 35.7927 66.6563 34.8668 66.8234 33.983C67.0532 32.3206 68.0664 31.4157 69.6749 31.2684C70.218 31.1842 70.7821 31.2684 71.3252 31.3526C72.0563 31.4788 72.777 31.6998 73.5813 31.8997C73.8633 31.0474 74.1453 30.1846 74.4169 29.3324C74.5005 29.2061 74.5005 29.0799 74.5213 28.9852L74.6467 28.4696C74.6467 28.3854 74.5318 28.3328 74.4169 28.2592C74.2811 28.1434 74.0513 28.0487 73.6857 27.9225C73.5395 27.8383 73.4037 27.8172 73.2575 27.7752C73.1322 27.691 73.0382 27.691 73.0382 27.691C71.4923 27.2491 69.8942 27.207 68.2753 27.3753C64.8598 27.7436 62.541 29.7638 61.9039 33.1202C61.5696 34.8879 61.5801 36.6766 61.9874 38.4337C62.5723 41.0747 64.16 42.8002 66.7503 43.5578C68.4424 44.0523 70.1762 44.0839 71.8997 43.8103C72.6308 43.6946 73.6649 43.3263 74.4169 43.0528L74.6989 42.9475L74.5631 42.4951H74.5213H74.5109ZM55.3758 29.5744C55.2922 29.4902 55.2504 29.4481 55.2087 29.3955L55.0833 29.2692C53.9448 28.1013 53.5166 27.8067 52.6183 27.5542C49.1924 26.5336 45.8395 28.3433 44.7846 31.826C44.137 33.962 44.1266 36.161 44.5026 38.3285C45.3277 43.0107 48.785 44.5889 52.4721 43.8103C53.6106 43.5788 54.4462 42.8634 55.2295 41.8743C55.2295 41.8743 55.3131 41.7901 55.3862 41.6218V43.6841H60.1073V27.5542H55.3862V29.5954H55.3653L55.3758 29.5744ZM54.9684 37.6867C54.8117 39.1807 53.621 40.0646 52.2005 40.012C50.7487 39.9278 49.7877 39.1702 49.4848 37.7708C49.1088 35.7822 49.5684 33.4043 49.5893 33.2149C49.9653 31.8786 50.9367 31.2158 52.3572 31.2473C53.7568 31.2473 54.8222 32.1101 54.9789 33.5621C55.1146 34.9194 55.1146 36.3294 54.9789 37.6761L54.9684 37.6867ZM43.8446 27.5226H40.2306V25.1026C40.4917 22.8194 44.2415 23.2508 44.2415 23.2508V19.3472C44.1161 19.3472 36.7942 17.569 35.3319 23.1771C35.1021 23.8716 35.1126 27.0912 35.123 27.5016H32V31.805H35.3215V43.4947H40.1575V31.805H43.855L44.2728 27.5016H43.855V27.5226H43.8446ZM119.737 27.6068C117.983 27.1333 116.207 27.1333 114.452 27.6068C111.831 28.3118 110.065 29.9847 109.501 32.6467C109.188 34.0987 109.125 35.6349 109.219 37.129C109.407 40.5275 111.496 42.9581 114.745 43.7156H114.881C115.006 43.7156 115.131 43.7998 115.257 43.7998H115.382C115.539 43.7998 115.727 43.884 115.925 43.884C116.562 43.9682 117.377 43.9997 118.045 43.884H118.15C121.503 43.7051 124.041 41.5797 124.782 38.318C125.19 36.5293 125.19 34.73 124.782 32.9308C124.145 30.1215 122.464 28.3012 119.685 27.5542L119.737 27.5963V27.6068ZM119.946 37.4447C119.946 37.5499 119.946 37.6551 119.863 37.7603C119.529 39.2649 118.442 40.0751 116.99 40.012C115.445 39.9278 114.379 39.0229 114.223 37.4657C114.118 36.3188 114.118 35.1614 114.223 34.0146C114.369 32.2048 115.486 31.2263 117.168 31.2579C118.547 31.2579 119.529 32.068 119.884 33.4148C120.218 34.7511 119.988 37.1395 119.967 37.4447H119.946ZM101.814 27.3122C99.913 27.1018 98.2522 27.691 96.8631 29.385V19L91.8077 19.6208V43.6315H96.8631V42.211C97.5524 42.695 98.2105 43.2948 98.9834 43.5683C101.929 44.631 105.814 43.7682 107.172 39.8015C108.05 37.2553 108.018 34.6459 107.36 32.068C106.64 29.2061 104.749 27.6278 101.814 27.3122ZM102.576 37.7077C102.347 39.286 101.104 40.1172 99.6205 40.0014C99.2445 40.0014 98.9103 39.8962 98.6178 39.77C97.4271 39.0755 97.0615 37.9181 96.9571 37.1921C96.8735 36.0663 96.7795 33.7094 97.3331 32.6046C97.7927 31.7524 98.6074 31.2894 99.6728 31.2473C101.198 31.1632 102.347 31.9523 102.576 33.52C102.764 34.8879 102.775 36.3399 102.576 37.7077Z" fill="white"/>
</svg>
