<svg width="190" height="65" viewBox="0 0 190 65" fill="none" xmlns="http://www.w3.org/2000/svg">
<path d="M134.153 21.0031C128.013 20.916 123.028 22.6517 119.555 25.3256C116.016 28.0397 114.042 31.6921 114.049 35.3779C114.082 40.8062 118.4 46.0333 128.442 45.9998C130.944 45.9864 133.13 45.7519 135.13 45.39L136.84 45.0817L138.002 40.0154C135.943 40.7257 133.797 41.1345 131.625 41.2284C126.283 41.2619 122.705 38.0317 122.698 33.8165C122.665 31.6318 123.596 29.5543 125.24 28.147C126.99 26.5989 129.604 25.6674 132.866 25.6674C135.428 25.6674 136.946 26.3778 137.956 27.4299L138.517 28.0397H139.349L141 22.0754C138.775 21.3851 136.471 21.0232 134.153 21.0031ZM115.871 21.2377H94.1622L93.8585 22.511L93.7726 22.8125C93.7726 22.8125 96.1561 23.0806 95.4299 25.4999L90.0158 45.457L99.2197 45.4704H100.837L101.24 43.7682C101.24 43.7682 99.2197 43.2455 99.7281 41.3691C99.7677 41.2552 100.527 38.4137 100.983 36.7048L101.326 35.4516H106.297C107.103 35.4516 107.704 35.5924 108.206 35.7867C108.74 35.9744 109.216 36.3161 109.579 36.7651L111.012 30.8142H102.66L103.564 27.4299L103.894 26.1633H111.157C111.89 26.1566 112.477 26.4247 112.893 26.7665L113.435 27.7315H114.26L115.864 21.231L115.871 21.2377ZM91.7127 22.8125L92.1286 21.2176H79.4519L79.1482 22.4976L79.0624 22.8058C79.9207 22.8729 81.1223 23.6636 80.1452 24.5751L69.9576 32.4829L70.0434 32.2081L72.1232 24.5281C72.5788 23.0002 74.1964 22.8125 74.1964 22.8125L74.5991 21.2176H62.5034L62.1865 22.4976L62.1073 22.8058C62.6817 22.9466 64.3323 23.2817 63.7579 25.4865C59.7304 40.2901 60.186 38.8225 59.9219 39.6468C59.0173 43.1651 57.6506 43.6275 56.8517 43.728L56.4094 43.7414L56.2443 44.4116L56 45.4503H68.6437L69.0597 43.7213C69.0597 43.7213 67.0591 43.2991 67.4288 41.8449C67.6335 41.0876 68.1485 39.2313 68.5843 37.5693C69.0266 35.9811 69.4096 34.5536 69.4096 34.5536C71.595 38.1389 72.1034 38.5678 74.751 42.2604C77.1939 45.6648 79.7952 45.4905 86.0742 45.457H87.6984L88.1143 43.7548C86.5231 43.7548 85.4734 42.5821 84.8131 41.8784C84.2057 41.1948 78.6134 32.3957 78.6134 32.3957L88.4775 24.3673L88.8076 24.0992C89.1773 23.7709 89.5933 23.4961 90.029 23.2683C91.0788 22.7187 91.7391 22.7991 91.7391 22.7991H91.7325L91.7127 22.8125Z" fill="white"/>
</svg>
