<svg width="190" height="65" viewBox="0 0 190 65" fill="none" xmlns="http://www.w3.org/2000/svg">
<g clip-path="url(#clip0_26587_107906)">
<path d="M53.144 18.5184C51.5579 16.7816 48.8262 16 45.2134 16H34.8156C34.1106 16 33.4938 16.5211 33.3176 17.2158L28.9998 44.3105C28.9117 44.8316 29.2642 45.2658 29.7047 45.3526C29.7929 45.3526 29.7929 45.3526 29.881 45.3526H36.3136L37.8997 35.2789L37.8115 35.6263C37.8997 34.9316 38.5165 34.4105 39.3095 34.4105H42.3937C48.3856 34.4105 53.0559 31.9789 54.4658 25.0316C54.4658 24.8579 54.5539 24.5974 54.5539 24.4237C55.0826 22.3395 54.5539 20.0816 53.144 18.5184Z" fill="#003087"/>
<path d="M131.833 31.3711C131.481 33.8896 129.454 33.8896 127.603 33.8896H126.546L127.339 29.1132C127.427 28.8527 127.603 28.5922 127.956 28.5922H128.485C129.806 28.5922 131.04 28.5922 131.657 29.2869C131.833 29.9817 132.009 30.6764 131.833 31.3711ZM130.952 24.7711H123.726C123.198 24.7711 122.845 25.1185 122.757 25.6396L119.849 43.7896C119.761 44.1369 120.025 44.3974 120.378 44.4843H120.466H124.167C124.519 44.4843 124.784 44.2238 124.872 43.8764L125.665 38.7527C125.753 38.2317 126.194 37.8843 126.634 37.8843H128.925C133.684 37.8843 136.415 35.6264 137.12 31.1975C137.561 29.6343 137.208 27.8975 136.239 26.5948C134.829 25.2053 132.89 24.5975 130.952 24.7711Z" fill="#009CDE"/>
<path d="M80.5487 31.3713C80.1962 33.8897 78.1695 33.8897 76.319 33.8897H75.2616L76.0547 29.1134C76.1428 28.8528 76.319 28.5923 76.6715 28.5923H77.2002C78.522 28.5923 79.7556 28.5923 80.3724 29.287C80.6368 29.9818 80.7249 30.6765 80.5487 31.3713ZM79.7556 24.7713H72.53C72.0013 24.7713 71.6488 25.1186 71.5607 25.6397L68.6528 43.7028C68.5647 44.0502 68.8291 44.3107 69.1815 44.3976H69.2696H72.7062C73.2349 44.3976 73.5874 44.0502 73.6755 43.5292L74.4686 38.666C74.5567 38.1449 74.9973 37.7976 75.4379 37.7976H77.7289C82.4873 37.7976 85.2189 35.5397 85.9238 31.1107C86.3644 29.5476 86.012 27.8107 85.0427 26.5081C83.5447 25.2055 81.6942 24.5976 79.7556 24.7713ZM96.4098 37.8844C96.1455 39.7949 94.4712 41.1844 92.5327 41.0976C91.0347 41.2713 89.801 40.2292 89.6248 38.7528C89.6248 38.4055 89.6248 38.1449 89.7129 37.7976C89.9773 35.887 91.6515 34.4976 93.5901 34.4976C94.4712 34.4107 95.2643 34.7581 95.8811 35.4528C96.4098 36.1476 96.5861 37.016 96.4098 37.8844ZM101.168 31.2844H97.7316C97.4672 31.2844 97.2029 31.4581 97.1148 31.8055L96.9385 32.7607L96.6742 32.4134C95.6168 31.3713 94.1188 30.8502 92.6208 31.0239C88.7436 31.1107 85.3951 33.9765 84.9546 37.8844C84.6021 39.7081 85.0427 41.6186 86.2763 43.0949C87.4218 44.3107 89.008 44.9186 90.5941 44.8318C92.3564 44.8318 94.1188 44.137 95.3524 42.9213L95.1762 43.8765C95.0881 44.2239 95.3524 44.4844 95.7049 44.5713H95.793H98.8771C99.4058 44.5713 99.7583 44.2239 99.8464 43.7028L101.697 32.066C101.785 31.7186 101.521 31.4581 101.168 31.3713C101.256 31.2844 101.256 31.2844 101.168 31.2844Z" fill="#003087"/>
<path d="M147.694 37.8837C147.43 39.7942 145.756 41.1837 143.817 41.0968C142.319 41.2705 141.085 40.2284 140.909 38.7521C140.909 38.4047 140.909 38.1442 140.997 37.7968C141.262 35.8863 142.936 34.4968 144.874 34.4968C145.756 34.41 146.549 34.7574 147.166 35.4521C147.606 36.1468 147.87 37.0153 147.694 37.8837ZM152.453 31.2837H149.016C148.752 31.2837 148.487 31.4574 148.399 31.8047L148.223 32.76L147.959 32.4126C146.901 31.3705 145.403 30.8495 143.905 31.0231C140.028 31.11 136.68 33.9758 136.239 37.8837C135.886 39.7074 136.327 41.6179 137.561 43.0942C138.706 44.31 140.292 44.9179 141.878 44.831C143.641 44.831 145.403 44.1363 146.637 42.9205L146.461 43.8758C146.372 44.2231 146.637 44.4837 146.989 44.5705H147.077H150.162C150.69 44.5705 151.043 44.2231 151.131 43.7021L152.981 32.0653C153.069 31.7179 152.805 31.4574 152.453 31.3705C152.541 31.2837 152.453 31.2837 152.453 31.2837Z" fill="#009CDE"/>
<path d="M119.497 31.2852H116.06C115.708 31.2852 115.443 31.4588 115.267 31.7194L110.509 38.6667L108.482 31.9799C108.394 31.5457 107.953 31.2852 107.513 31.2852H104.076C103.724 31.2852 103.459 31.5457 103.459 31.893C103.459 31.9799 103.459 31.9799 103.459 32.0667L107.248 43.0957L103.635 48.0457C103.459 48.3062 103.547 48.6536 103.812 48.8273C103.9 48.9141 104.076 48.9141 104.164 48.9141H107.601C107.953 48.9141 108.218 48.7404 108.394 48.4799L119.849 32.1536C120.025 31.8931 119.937 31.5457 119.673 31.372C119.761 31.372 119.673 31.2852 119.497 31.2852Z" fill="#003087"/>
<path d="M156.506 25.2046L153.598 43.702C153.51 44.0494 153.774 44.3099 154.127 44.3968H154.215H157.211C157.74 44.3968 158.092 44.0494 158.18 43.5283L161.088 25.3783C161.176 25.031 160.912 24.7704 160.559 24.6836H160.471H157.123C156.77 24.7704 156.506 24.9441 156.506 25.2046Z" fill="#009CDE"/>
<path d="M53.144 18.5184C51.5579 16.7816 48.8262 16 45.2134 16H34.8156C34.1106 16 33.4938 16.5211 33.3176 17.2158L28.9998 44.3105C28.9117 44.8316 29.2642 45.2658 29.7047 45.3526C29.7929 45.3526 29.7929 45.3526 29.881 45.3526H36.3136L37.8997 35.2789L37.8115 35.6263C37.8997 34.9316 38.5165 34.4105 39.3095 34.4105H42.3937C48.3856 34.4105 53.0559 31.9789 54.4658 25.0316C54.4658 24.8579 54.5539 24.5974 54.5539 24.4237C55.0826 22.3395 54.5539 20.0816 53.144 18.5184Z" fill="#003087"/>
<path d="M39.662 24.4237C39.7501 23.8158 40.2788 23.3816 40.9838 23.3816H49.1787C50.0599 23.3816 50.9411 23.4684 51.9103 23.5553C52.3509 23.6421 52.7915 23.7289 53.2321 23.8158C53.6727 23.9895 54.1133 24.1632 54.5539 24.4237C55.0826 22.3395 54.5539 20.1684 53.144 18.5184C51.5579 16.7816 48.8262 16 45.2134 16H34.8156C34.1106 16 33.4938 16.5211 33.3176 17.2158L28.9998 44.3105C28.9117 44.8316 29.2642 45.2658 29.7047 45.3526C29.7929 45.3526 29.7929 45.3526 29.881 45.3526H36.3136L37.8997 35.2789L39.662 24.4237Z" fill="#003087"/>
<path d="M54.5541 24.3359C54.5541 24.5096 54.466 24.7701 54.466 24.9438C53.0561 31.8912 48.3859 34.3228 42.3939 34.3228H39.3098C38.6048 34.3228 37.988 34.8438 37.8118 35.5386L36.3138 45.3517L35.8732 48.1307C35.7851 48.5649 36.1375 48.9123 36.49 48.9991H36.5781H41.9533C42.5701 48.9991 43.0988 48.5649 43.2751 47.957L43.3632 47.6965L44.4206 41.357L44.5087 41.0096C44.5968 40.4017 45.1255 39.9675 45.8305 39.9675H46.6235C51.9106 39.9675 55.964 37.8833 57.1976 31.8044C57.7263 29.2859 57.462 27.1149 56.1402 25.6386C55.6115 25.0307 55.1709 24.6833 54.5541 24.3359Z" fill="#009CDE"/>
<path d="M53.1442 23.8151C52.7036 23.7282 52.263 23.5545 51.8224 23.5545C50.9413 23.3809 50.0601 23.3809 49.0908 23.3809H40.8959C40.279 23.3809 39.7503 23.8151 39.5741 24.423L37.8118 35.2782L37.7236 35.6256C37.8118 34.9309 38.4286 34.4098 39.2216 34.4098H42.3057C48.2977 34.4098 52.968 31.9782 54.3778 25.0309C54.3778 24.8572 54.466 24.5966 54.466 24.423C54.1135 24.2493 53.761 24.0756 53.3204 23.9888C53.3204 23.9019 53.2323 23.8151 53.1442 23.8151Z" fill="#012169"/>
</g>
<defs>
<clipPath id="clip0_26587_107906">
<rect width="132" height="33" fill="white" transform="translate(29 16)"/>
</clipPath>
</defs>
</svg>
