<svg width="190" height="65" viewBox="0 0 190 65" fill="none" xmlns="http://www.w3.org/2000/svg">
<path d="M51.8446 31.5946C51.8446 42.9817 42.7018 52.1892 31.4178 52.1892C20.1338 52.1892 11 42.9817 11 31.5946C11 20.2075 20.1428 11 31.4178 11C42.7018 11 51.8446 20.2211 51.8446 31.5946Z" fill="#FEFEFE"/>
<path d="M33.4706 19.9039C32.7941 19.7861 32.1043 19.7227 31.4189 19.7227C30.411 19.7227 29.5465 19.8722 29.3628 19.9039C29.2643 19.9266 29.2284 19.8269 29.3046 19.768C29.3718 19.7091 31.4144 18.1367 31.4144 18.1367C31.4144 18.1367 33.4661 19.7091 33.5333 19.768C33.6139 19.8269 33.5691 19.9266 33.4661 19.9039H33.4706ZM29.9362 30.1038C29.9362 30.1038 29.8332 30.1491 29.8018 30.2398C30.2274 30.5796 30.532 31.3363 31.4189 31.3363C32.3059 31.3363 32.606 30.5796 33.045 30.2398C33.0136 30.1491 32.8972 30.1038 32.8972 30.1038C32.8972 30.1038 32.3372 30.2398 31.4189 30.2398C30.5006 30.2398 29.9362 30.1038 29.9362 30.1038ZM31.4189 28.8351C31.1725 28.8351 31.1143 28.7444 30.9486 28.7444C30.7918 28.7444 30.4782 28.8668 30.411 28.9937C30.411 29.0526 30.4334 29.107 30.4782 29.1523C30.8366 29.2112 31.0068 29.4151 31.4234 29.4151C31.84 29.4151 32.0057 29.2112 32.3775 29.1523C32.4134 29.107 32.4358 29.0526 32.4447 28.9937C32.3775 28.8713 32.064 28.7444 31.8982 28.7444C31.728 28.7444 31.6742 28.8351 31.4279 28.8351H31.4189ZM51.8143 32.7274C51.7874 33.2168 51.7426 33.7017 51.6799 34.1865C49.3685 34.5717 48.5487 32.5009 46.1701 32.6006C46.3134 33.1081 46.4254 33.6201 46.5195 34.1503C48.4726 34.1503 49.2565 35.9945 51.4336 35.7226C51.3216 36.2845 51.1872 36.8373 51.0304 37.3856C49.3013 37.5532 48.6966 35.8359 46.7121 35.8812C46.7345 36.1621 46.7345 36.4567 46.7345 36.7421V37.2315C48.4278 37.2089 48.9788 38.7948 50.5959 38.7132C50.3943 39.2661 50.1703 39.8098 49.9239 40.3445C48.7593 40.2765 48.3651 38.7812 46.5912 38.8945C46.5329 39.2797 46.4702 39.6648 46.3896 40.0364C47.9261 39.9231 48.2531 41.3504 49.3506 41.4637C49.0728 41.9848 48.7772 42.4833 48.4547 42.9681C47.8051 42.6147 47.2452 41.5543 46.0088 41.4954C46.1342 41.1012 46.2418 40.7025 46.3358 40.2947C45.2473 40.2947 43.993 39.8642 42.9493 38.89C43.2853 36.9415 40.2795 34.9523 40.2795 33.5159C40.2795 31.9662 41.0544 31.1052 41.0544 29.0118C41.0544 27.4621 40.3153 25.7765 39.182 24.621C38.9714 24.4035 38.7385 24.2086 38.4877 24.0455C39.5224 25.346 40.3153 26.8866 40.3153 28.6629C40.3153 30.634 39.406 31.6716 39.406 33.4932C39.406 35.3148 42.0444 36.8871 42.0444 38.7676C42.0444 39.5062 41.8115 40.2267 41.0455 41.6404C42.2236 42.8412 43.769 43.4847 44.768 43.4847C45.0905 43.4847 45.2607 43.394 45.3727 43.1358C45.4713 42.9092 45.5743 42.6917 45.6639 42.4697C46.73 42.5014 47.2228 43.4983 47.8186 43.8834C47.4916 44.3275 47.1556 44.758 46.7972 45.1612C46.3941 44.7172 45.8565 43.974 45.0816 43.7701C44.9337 44.042 44.7904 44.3139 44.6336 44.5722C45.3055 44.767 45.7669 45.4467 46.1253 45.8953C45.7445 46.3031 45.3414 46.6883 44.9248 47.0598C44.6694 46.643 44.2528 46.1309 43.8004 45.85C43.6347 46.0766 43.451 46.3031 43.2718 46.5161C43.666 46.788 44.002 47.2547 44.226 47.6489C43.7422 48.0341 43.2494 48.4056 42.7208 48.7455C42.4745 46.6611 39.6344 45.2247 40.4094 42.7914C40.1496 43.2219 39.8629 43.7656 39.8629 44.4C39.8629 46.1672 41.7129 47.5583 41.8563 49.2983C41.4755 49.5339 41.0813 49.7514 40.6782 49.9553C40.611 48.0431 38.6489 45.9361 38.6489 44.3637C38.6489 42.5965 40.938 40.8339 40.938 38.7631C40.938 36.6923 38.2995 35.2423 38.2995 33.4207C38.2995 31.5991 39.4239 30.557 39.4239 28.2143C39.4239 26.506 38.6176 24.7751 37.3722 23.6649C37.1617 23.4746 36.9243 23.3115 36.6779 23.1801C37.8426 24.6074 38.528 25.8988 38.528 27.8427C38.528 30.0404 37.2468 31.2593 37.2468 33.4117C37.2468 35.564 39.827 36.7603 39.827 38.7631C39.827 40.7659 37.417 42.4651 37.417 44.5223C37.417 46.3892 39.5359 48.2561 39.5717 50.4855C39.1148 50.6894 38.64 50.8706 38.1562 51.0383C38.4249 48.7953 36.0373 46.4753 36.0373 44.6447C36.0373 42.6419 38.5414 40.92 38.5414 38.7586C38.5414 36.5971 36.006 35.5912 36.006 33.3709C36.006 31.1506 37.5559 29.9316 37.5559 27.4757C37.5559 25.5726 36.6242 23.8552 35.2579 22.7904C35.2355 22.7677 35.1997 22.745 35.1817 22.7224C35.0474 22.6318 34.9488 22.745 35.0339 22.8583C35.997 24.0818 36.5166 25.3052 36.5166 27.1268C36.5166 29.3698 34.7338 31.1913 34.7338 33.3618C34.7338 35.931 37.1348 36.656 37.1348 38.7586C37.1348 40.8611 34.5546 42.5376 34.5546 44.767C34.5546 46.8378 36.9915 49.1352 36.5749 51.5231C36.0911 51.6591 35.5894 51.7588 35.0966 51.8494C35.5446 48.8859 33.157 46.7472 33.157 44.7987C33.157 42.6917 35.8268 40.8158 35.8268 38.754C35.8268 36.8056 33.9095 36.1712 33.6632 34.1956C33.6318 33.9237 33.4168 33.7198 33.1122 33.7742C32.718 33.8421 32.2252 34.1004 31.4413 34.1004C30.6574 34.1004 30.1602 33.8376 29.7704 33.7742C29.4793 33.7153 29.2643 33.9237 29.2329 34.1956C28.9731 36.1757 27.0693 36.8101 27.0693 38.754C27.0693 40.8158 29.7256 42.6917 29.7256 44.7987C29.7256 46.7472 27.3336 48.8859 27.795 51.8494C27.2888 51.7588 26.796 51.6545 26.3033 51.5231C25.8867 49.1352 28.3235 46.8378 28.3235 44.767C28.3235 42.5376 25.7568 40.8611 25.7568 38.7586C25.7568 36.656 28.1578 35.931 28.1578 33.3618C28.1578 31.1913 26.3749 29.3698 26.3749 27.1268C26.3749 25.3052 26.8901 24.0818 27.8577 22.8583C27.9473 22.745 27.8353 22.6318 27.7098 22.7224C27.6785 22.745 27.6516 22.7677 27.6203 22.7904C26.2629 23.8552 25.3222 25.5771 25.3222 27.4757C25.3222 29.9316 26.8811 31.1551 26.8811 33.3709C26.8811 35.5867 24.3457 36.5971 24.3457 38.7586C24.3457 40.92 26.8363 42.6419 26.8363 44.6447C26.8363 46.4753 24.4577 48.7998 24.7265 51.0383C24.2472 50.8706 23.7723 50.6849 23.302 50.4855C23.3333 48.2561 25.4566 46.3892 25.4566 44.5223C25.4566 42.4606 23.0601 40.7659 23.0601 38.7631C23.0601 36.7603 25.6403 35.5595 25.6403 33.4117C25.6403 31.2638 24.3591 30.0404 24.3591 27.8427C24.3591 25.8943 25.0311 24.6074 26.2092 23.1801C25.9583 23.3115 25.7254 23.4746 25.5149 23.6649C24.2696 24.7751 23.4632 26.506 23.4632 28.2143C23.4632 30.557 24.5831 31.5991 24.5831 33.4207C24.5831 35.2423 21.9447 36.6923 21.9447 38.7631C21.9447 40.8339 24.2337 42.6011 24.2337 44.3637C24.2337 45.9361 22.2717 48.0431 22.2045 49.9553C21.8013 49.7514 21.4026 49.5339 21.0174 49.2983C21.1742 47.5583 23.0242 46.1626 23.0242 44.4C23.0242 43.7656 22.7241 43.2219 22.4732 42.7914C23.2348 45.2247 20.4127 46.6611 20.1528 48.7455C19.6377 48.4011 19.1405 48.0386 18.6611 47.6489C18.8851 47.2547 19.2211 46.788 19.6019 46.5161C19.4227 46.2986 19.2524 46.0766 19.0867 45.85C18.6253 46.1355 18.2222 46.643 17.9623 47.0598C17.5457 46.6883 17.1471 46.2986 16.7618 45.8953C17.1112 45.4422 17.5816 44.7625 18.2535 44.5722C18.0967 44.3094 17.9489 44.042 17.8056 43.7701C17.0216 43.974 16.4841 44.7217 16.0899 45.1612C15.7315 44.7489 15.3866 44.323 15.0596 43.8834C15.6554 43.4983 16.1481 42.5014 17.2232 42.4697C17.3128 42.6962 17.4024 42.9137 17.5054 43.1358C17.6174 43.394 17.7966 43.4847 18.1191 43.4847C19.1181 43.4847 20.6546 42.8412 21.8416 41.6404C21.0667 40.2267 20.8337 39.5017 20.8337 38.7676C20.8337 36.8871 23.4811 35.3148 23.4811 33.4932C23.4811 31.6716 22.5718 30.6295 22.5718 28.6629C22.5718 26.8866 23.3692 25.346 24.3995 24.0455C24.1441 24.2086 23.9112 24.4035 23.7051 24.6255C22.5718 25.781 21.8192 27.4666 21.8192 29.0163C21.8192 31.1098 22.6032 31.9707 22.6032 33.5204C22.6032 34.9568 19.5974 36.9506 19.9333 38.8945C18.8896 39.8687 17.6353 40.2992 16.5334 40.2992C16.6364 40.707 16.7484 41.1012 16.8693 41.5C15.6375 41.5589 15.073 42.6192 14.4235 42.9726C14.0965 42.4878 13.7964 41.9848 13.5141 41.4683C14.6116 41.355 14.9476 39.9276 16.4751 40.0409C16.3945 39.6603 16.3273 39.2797 16.2735 38.899C14.5131 38.7857 14.1099 40.2811 12.9542 40.349C12.7078 39.8143 12.4838 39.2706 12.2823 38.7178C13.8994 38.7948 14.4459 37.2134 16.1436 37.236C16.1302 37.0775 16.1302 36.9189 16.1302 36.7467C16.1302 36.4612 16.1436 36.1667 16.1526 35.8857C14.1682 35.8404 13.5634 37.5623 11.8433 37.3901C11.6865 36.8418 11.5521 36.289 11.4401 35.7271C13.6037 35.999 14.3877 34.1548 16.3407 34.1548C16.4303 33.6246 16.5558 33.1126 16.6901 32.6051C14.3249 32.5009 13.4917 34.5762 11.1803 34.191C11.1221 33.7062 11.0817 33.2168 11.0549 32.732C13.7336 33.0356 14.746 30.8062 17.1919 31.0781C17.4248 30.4935 17.6936 29.9226 17.9982 29.3698C14.9252 28.826 13.8815 31.4179 11.0325 31.0101C11.3147 19.9039 20.3365 11 31.4189 11C42.5013 11 51.5231 19.9039 51.8322 31.0101C48.9698 31.4179 47.9395 28.826 44.8665 29.3698C45.1667 29.9271 45.4399 30.489 45.6639 31.0781C48.1097 30.8062 49.1176 33.0356 51.8098 32.732L51.8143 32.7274ZM22.648 24.0954C21.1428 23.4746 19.3286 23.6196 17.7652 24.6255C17.5323 23.1665 16.7439 21.8615 15.624 21.0821C15.4672 20.9779 15.3104 21.0821 15.3194 21.2633C15.5523 24.3401 13.7695 27.0226 11.57 29.3652C13.8367 30.054 15.7674 27.1132 18.7059 28.1418C19.7586 26.5558 21.0935 25.1829 22.6435 24.0908L22.648 24.0954ZM31.4189 22.2285C29.5241 22.2285 27.9383 23.316 27.5262 24.7071C27.4948 24.8113 27.5351 24.8883 27.6606 24.8294C27.9965 24.6708 28.3907 24.5938 28.8029 24.5938C29.5778 24.5938 30.2632 24.8883 30.6664 25.3868C30.8455 25.9758 30.859 26.8368 30.6529 27.3216C30.3393 27.2537 30.2274 27.0044 29.9138 27.0044C29.6002 27.0044 29.3628 27.231 28.8387 27.231C28.3146 27.231 28.2429 26.9682 27.898 26.9682C27.4948 26.9682 27.4142 27.3987 27.4142 27.8744C27.4142 30.0041 29.3538 32.9313 31.4189 32.9313C33.484 32.9313 35.4236 29.9996 35.4236 27.8744C35.4236 27.3987 35.334 26.9908 34.9085 26.9365C34.6935 27.086 34.4919 27.231 34.0126 27.231C33.484 27.231 33.3406 27.0044 33.0226 27.0044C32.6553 27.0044 32.6866 27.8065 32.2387 27.8518C31.9475 27.1268 31.9341 26.1979 32.1804 25.3822C32.5836 24.8838 33.269 24.5893 34.0305 24.5893C34.4561 24.5893 34.8503 24.6663 35.1862 24.8249C35.3072 24.8838 35.352 24.8022 35.3206 24.7026C34.9085 23.3115 33.3138 22.224 31.4189 22.224V22.2285ZM34.4381 25.2826C33.9902 25.2826 33.4482 25.4321 33.1122 25.8037C33.0764 25.9215 33.0808 26.0438 33.1346 26.1526C33.9543 25.8671 34.6845 25.858 35.0294 26.2568C35.2221 26.0846 35.2758 25.9305 35.2758 25.7447C35.2758 25.4729 35.007 25.2826 34.4381 25.2826ZM27.8084 26.2568C28.2116 25.8626 29.0403 25.8716 29.9183 26.1979C29.9496 25.7538 29.1791 25.2826 28.4042 25.2826C27.8442 25.2826 27.562 25.4729 27.562 25.7447C27.562 25.926 27.6292 26.0846 27.8084 26.2568ZM40.8753 19.0475C39.3746 19.1518 38.0711 19.6683 37.0273 20.5429C37.4529 19.3103 38.0352 18.1413 38.7564 17.0583C36.8481 17.2622 35.2579 17.9646 34.1022 19.1744L33.1928 16.7638L35.2131 14.9649L32.5119 14.7745L31.4234 12.2416L30.3438 14.7745L27.6382 14.9649L29.6585 16.7638L28.7491 19.1744C27.5844 17.9646 25.9897 17.2622 24.0814 17.0583C24.8026 18.1413 25.3894 19.3103 25.8195 20.5429C24.7668 19.6728 23.4632 19.1518 21.9715 19.0475C22.8674 20.2121 23.6648 21.4491 24.2472 22.7813C24.3143 22.9399 24.4622 22.9852 24.6145 22.9036C26.6661 21.875 28.9686 21.295 31.4144 21.295C33.8603 21.295 36.1717 21.875 38.2234 22.9036C38.3801 22.9807 38.5145 22.9399 38.5817 22.7813C39.1775 21.4446 39.9704 20.2121 40.8708 19.0475H40.8753ZM44.1408 28.1463C47.0794 27.1177 49.0101 30.0585 51.2768 29.3698C49.0773 27.0271 47.281 24.3446 47.5184 21.2679C47.5408 21.0866 47.3751 20.9869 47.2273 21.0866C46.1029 21.866 45.319 23.171 45.086 24.6301C43.5271 23.6241 41.7084 23.4746 40.2078 24.0999C41.7577 25.1919 43.0882 26.5649 44.1408 28.1509V28.1463ZM44.2976 50.0867H43.6705V49.7469H45.3279V50.0867H44.7008V51.863H44.2976V50.0867ZM45.7311 49.7514H46.3358L46.8958 51.3827H46.9182L47.4781 49.7514H48.0829V51.8675H47.6887V50.1003H47.6752L47.057 51.8675H46.7435L46.1253 50.1003H46.1118V51.8675H45.7176V49.7514H45.7311Z" fill="#0F6D41"/>
<path d="M136.754 33.8278C136.754 37.1991 134.882 39.0116 131.392 39.0116C127.903 39.0116 126.03 37.1538 126.03 33.8641V27.8873H129.892V33.6692C129.892 35.2778 130.326 35.9893 131.361 35.9893C132.396 35.9893 132.898 35.3413 132.898 33.5106V27.8873H136.754V33.8278ZM79.2504 30.6469V38.785H75.3577V30.6469H72.1055V27.8873H82.5026V30.6469H79.2504ZM89.4817 30.3614L88.5276 34.1088H90.4672L89.4817 30.3614ZM91.9947 38.785L91.3452 36.7913H87.6854L86.9911 38.785H83.1208L87.0448 27.8873H91.9679L95.8606 38.785H91.9903H91.9947ZM149.723 38.1597L148.558 35.3322C147.864 35.8533 147.169 36.3155 146.036 36.3155C144.509 36.3155 143.501 35.0467 143.501 33.5106C143.501 31.9745 144.397 30.6333 145.978 30.6333C146.986 30.6333 147.85 31.1317 148.558 31.6981L149.705 28.9386C148.424 28.2816 147.138 27.8873 145.364 27.8873C142.099 27.8873 139.608 30.1394 139.608 33.4789C139.608 37.0088 142.031 39.2291 145.476 39.2291C147.371 39.2291 148.706 38.7896 149.727 38.1643L149.723 38.1597ZM158.471 38.785L156.025 34.8111V38.785H152.245V27.8873H156.025V31.8794L158.315 27.8873H162.534L158.991 33.2614L162.996 38.785H158.471ZM65.6012 39.2246C68.056 39.2246 70.6049 38.3546 70.6049 35.5588C70.6049 33.0485 68.4726 32.3552 66.8241 31.9927C65.5788 31.7208 64.9741 31.5939 64.9741 31.1C64.9741 30.4339 65.8162 30.375 66.2732 30.375C67.3841 30.375 68.4368 30.8372 69.3372 31.3945L70.3451 28.9069C69.0236 28.3405 67.4289 27.8873 65.9372 27.8873C63.3928 27.8873 61.3949 29.1198 61.3949 31.6211C61.3949 33.6602 62.9314 34.4532 64.6247 34.87C65.8028 35.1646 66.5554 35.2552 66.5554 35.8307C66.5554 36.4061 65.982 36.5874 65.422 36.5874C64.1902 36.5874 63.012 36.0572 62.2819 35.4228L61.059 37.8199C62.3804 38.6944 63.9841 39.2246 65.6012 39.2246ZM168.962 39.2246C171.408 39.2246 173.957 38.3546 173.957 35.5588C173.957 33.0485 171.838 32.3552 170.176 31.9927C168.931 31.7208 168.335 31.5939 168.335 31.1C168.335 30.4339 169.177 30.375 169.625 30.375C170.745 30.375 171.789 30.8372 172.689 31.3945L173.697 28.9069C172.385 28.3405 170.781 27.8873 169.289 27.8873C166.745 27.8873 164.756 29.1198 164.756 31.6211C164.756 33.6602 166.293 34.4532 167.986 34.87C169.164 35.1646 169.917 35.2552 169.917 35.8307C169.917 36.4061 169.334 36.5874 168.783 36.5874C167.538 36.5874 166.373 36.0572 165.63 35.4228L164.42 37.8199C165.733 38.6944 167.345 39.2246 168.962 39.2246ZM107.185 34.7069C108.506 34.2175 109.228 32.8763 109.228 31.6166C109.228 29.0473 107.476 27.8828 105.008 27.8828H99.162V38.7805H102.907V35.5452H103.861L105.801 38.7805H109.85L107.18 34.7069H107.185ZM105.433 31.6392C105.433 32.3506 104.985 32.7721 104.246 32.7721H102.911V30.4883H104.26C104.976 30.4883 105.438 30.8508 105.438 31.6075V31.6392H105.433ZM120.323 33.2116C121.726 32.908 122.42 32.115 122.42 30.7783C122.42 28.9205 121.04 27.8828 118.608 27.8828H112.448V38.7941H118.37C121.219 38.7941 122.644 37.7746 122.644 35.7174C122.644 34.29 121.757 33.3294 120.323 33.2161V33.2116ZM116.148 30.2481H117.506C118.223 30.2481 118.693 30.5517 118.693 31.1997V31.2224C118.693 31.8341 118.245 32.183 117.492 32.183H116.148V30.2481ZM118.751 35.4093C118.751 36.0572 118.29 36.4197 117.528 36.4197H116.148V34.3807H117.537C118.276 34.3807 118.747 34.7069 118.747 35.3775V35.4093H118.751ZM176.354 29.727V29.718C176.354 28.7211 177.16 27.8828 178.181 27.8828C179.203 27.8828 180 28.7075 180 29.7044V29.7134C180 30.7194 179.194 31.5577 178.172 31.5577C177.173 31.5622 176.358 30.7511 176.354 29.7406C176.354 29.7361 176.354 29.7316 176.354 29.727ZM179.745 29.718V29.7089C179.745 28.8389 179.073 28.123 178.186 28.123C177.299 28.123 176.605 28.848 176.605 29.718V29.727C176.605 30.597 177.29 31.313 178.177 31.313C179.037 31.3175 179.74 30.6197 179.745 29.7497C179.745 29.7406 179.745 29.7316 179.745 29.7225V29.718ZM177.465 28.7347H178.293C178.531 28.7347 178.732 28.8117 178.844 28.925C178.943 29.0202 179.001 29.1516 179.001 29.2875V29.2966C179.001 29.6002 178.8 29.7814 178.517 29.8539L179.091 30.6016H178.755L178.217 29.8992H177.747V30.6016H177.465V28.7347ZM178.275 29.65C178.535 29.65 178.714 29.5277 178.714 29.3102C178.714 29.1063 178.558 28.9794 178.289 28.9794H177.751V29.6455H178.28L178.275 29.65Z" fill="white"/>
</svg>
