<svg width="160" height="65" viewBox="0 0 160 65" fill="none" xmlns="http://www.w3.org/2000/svg">
<path d="M42.6172 25.9875L41.7517 25.9578C38.022 25.851 34.9079 27.1981 32.5225 30.0526C30.4525 32.5272 29.6881 35.444 30.1134 38.613C30.5982 42.233 32.5523 45.0311 35.6485 46.8381C39.5894 49.1377 43.6285 48.8914 47.4207 46.3693C50.6091 44.2447 52.2777 41.1648 52.3728 37.34C52.465 33.6637 52.4085 29.9843 52.4115 26.305V25.0142C52.6197 25.124 52.7119 25.1626 52.7952 25.216C54.9783 26.6343 57.5005 27.4474 60.103 27.572L60.6413 27.6046V21.5337C60.1714 21.4951 58.7943 21.231 58.7943 21.231C56.9443 20.8958 55.6207 19.7415 54.4162 18.4063C53.1759 17.0354 52.6227 15.3441 52.2539 13.5934L52.1736 13H46.1031L46.2488 26.5453C46.2488 30.0318 46.2726 33.5183 46.2696 37.0077C46.2696 39.2865 44.7676 41.3606 42.6678 41.9659C40.8297 42.4941 39.2325 42.1202 37.7543 40.8087C35.7764 39.0521 35.5771 35.5211 37.4569 33.6518C38.7209 32.3907 40.2259 31.9278 41.9718 32.1445L42.6143 32.2513L42.6083 25.9845L42.6172 25.9875Z" fill="#27E0DF"/>
<path d="M44.1936 27.7072L43.3251 27.6775C39.5954 27.5707 36.4813 28.9178 34.0959 31.7723C32.0318 34.2439 31.2614 37.1637 31.6927 40.3327C32.1775 43.9527 34.1286 46.7507 37.2278 48.5578C41.1687 50.8574 45.2078 50.6111 49 48.089C52.1884 45.9644 53.857 42.8845 53.9551 39.0597C54.0444 35.3834 53.9879 31.704 53.9938 28.0247V26.7339C54.199 26.8437 54.2912 26.8823 54.3775 26.9387C56.5606 28.354 59.0828 29.167 61.6853 29.2917L62.2236 29.3243V23.2564C61.605 23.1762 60.9893 23.0754 60.3766 22.9537C58.5266 22.6184 57.203 21.4642 55.9985 20.1289C54.7582 18.7581 54.205 17.0668 53.8391 15.3161L53.7588 14.7227H47.6854L47.8281 28.268C47.8281 31.7545 47.8519 35.2409 47.849 38.7304C47.849 41.0092 46.3499 43.0833 44.2471 43.6886C42.409 44.2167 40.8148 43.8429 39.3336 42.5314C37.3587 40.7748 37.1564 37.2438 39.0362 35.3745C40.3003 34.1134 41.8052 33.6505 43.5511 33.8671L44.1966 33.9739L44.1906 27.7072H44.1936Z" fill="#F92C56"/>
<path d="M60.3738 22.9518C58.5238 22.6165 57.2002 21.4622 55.9957 20.127C55.8113 19.9193 55.6387 19.7027 55.4781 19.4742C55.1064 19.1359 54.7554 18.7798 54.4193 18.406C53.4467 17.3318 52.8994 16.0619 52.5306 14.7207H47.6855L47.8283 28.266C47.8283 31.7525 47.8521 35.239 47.8491 38.7284C47.8491 41.0072 46.3501 43.0813 44.2503 43.6866C42.4092 44.2148 40.812 43.8409 39.3338 42.5294C38.9412 42.1763 38.614 41.755 38.3671 41.2891C38.156 41.1408 37.9507 40.9805 37.7574 40.8084C35.7795 39.0518 35.5803 35.5209 37.46 33.6515C38.7241 32.3905 40.229 31.9276 41.9749 32.1442L42.6174 32.251L42.6114 27.6756C39.194 27.7497 36.3238 29.0998 34.0931 31.7703C32.026 34.242 31.2586 37.1617 31.684 40.3307C31.9457 42.2802 32.6387 43.9893 33.6975 45.4343C34.2835 45.9506 34.9289 46.4194 35.6397 46.8348C39.5806 49.1344 43.6197 48.8881 47.4119 46.366C50.6003 44.2415 52.2689 41.1615 52.3641 37.3368C52.4563 33.6604 52.3998 29.9811 52.4027 26.3017V25.011C52.6109 25.1208 52.7031 25.1594 52.7864 25.2128C54.9695 26.6311 57.4917 27.4441 60.0942 27.5687L60.6325 27.6014V23.0022L60.3619 22.9518M70.8968 23.0556V27.3195H75.6318V42.6748H80.4204V27.1652H84.1769L85.5153 23.1595L70.8968 23.0556ZM87.0976 42.571H91.8356V29.2719H87.1006V42.571H87.0976ZM92.0498 25.4086C92.0944 26.7973 90.9999 27.9604 89.6079 28.0049C88.216 28.0494 87.05 26.9575 87.0054 25.5688C87.0054 25.5154 87.0054 25.465 87.0054 25.4116C87.05 24.0229 88.213 22.931 89.6079 22.9755C90.9404 23.017 92.0081 24.0852 92.0498 25.4116M103.007 33.2272L108.866 27.6281H103.162L98.5783 31.9602V23.0081H93.9444V42.571H98.5783V37.5801L99.9167 36.2033L104.238 42.4701H109.437L103.004 33.2272H103.007ZM126.968 23.109H112.04V27.3195H116.983V42.571H121.617V27.3195H125.763L126.971 23.109H126.968ZM153.57 33.2272L159.429 27.6281H153.724L149.141 31.9602V23.0081H144.51V42.571H149.144V37.5801L150.482 36.2033L154.804 42.4701H160L153.567 33.2272H153.57Z" fill="white"/>
<path d="M133.942 38.3632C131.839 38.378 130.12 36.6897 130.105 34.5889C130.105 32.5029 131.825 30.8146 133.942 30.8146C136.06 30.8146 137.779 32.5029 137.779 34.5889C137.779 36.6748 136.06 38.3632 133.942 38.3632ZM133.226 26.7109C128.505 26.7109 124.68 30.239 124.68 34.5889C124.68 38.9388 128.505 42.4698 133.223 42.4698C137.94 42.4698 141.768 38.9418 141.768 34.5889C141.768 30.236 137.943 26.7109 133.223 26.7109" fill="#27E0DF"/>
<path d="M133.942 38.3632C131.84 38.378 130.121 36.6897 130.106 34.5889C130.106 32.5029 131.825 30.8146 133.942 30.8146C136.06 30.8146 137.779 32.5029 137.779 34.5889C137.779 36.6748 136.06 38.3632 133.942 38.3632ZM134.662 26.7109C129.945 26.7109 126.12 30.239 126.12 34.5889C126.12 38.9388 129.945 42.4698 134.665 42.4698C139.385 42.4698 143.207 38.9418 143.207 34.5889C143.207 30.236 139.382 26.7109 134.665 26.7109" fill="#F92C56"/>
<path d="M133.942 38.3657C131.84 38.3805 130.121 36.6922 130.106 34.5914C130.106 32.5055 131.825 30.8171 133.942 30.8171C136.06 30.8171 137.779 32.5055 137.779 34.5914C137.779 36.6774 136.06 38.3657 133.942 38.3657ZM133.942 26.7461C129.561 27.0844 126.12 30.464 126.12 34.5914C126.12 38.7188 129.564 42.0984 133.942 42.4367C138.324 42.0984 141.765 38.7188 141.765 34.5914C141.765 30.464 138.324 27.0844 133.942 26.7491" fill="white"/>
</svg>
