<svg width="190" height="65" viewBox="0 0 190 65" fill="none" xmlns="http://www.w3.org/2000/svg">
<g clip-path="url(#clip0_26587_107921)">
<path d="M59.6639 38.9939C60.0049 39.9024 60.4824 40.675 61.0878 41.3117C61.6932 41.9569 62.4094 42.4494 63.2364 42.789C64.0635 43.1286 64.9673 43.2984 65.9393 43.2984C66.9113 43.2984 67.7724 43.1201 68.608 42.7635C69.4436 42.4069 70.1598 41.9145 70.7822 41.2693C71.4046 40.624 71.8821 39.8599 72.2232 38.9685C72.5642 38.077 72.7347 37.0837 72.7347 35.98V19H76.8785V46.5246H72.7688V43.9691C71.848 44.9369 70.7652 45.684 69.5118 46.2104C68.2584 46.7368 66.9113 47 65.4618 47C64.0123 47 62.614 46.7453 61.3351 46.2359C60.0561 45.7265 58.9562 44.9964 58.0183 44.054C57.0804 43.1116 56.3472 41.9739 55.81 40.6495C55.2728 39.325 55 37.8478 55 36.2262V19H59.1438V35.9885C59.1438 37.0922 59.3143 38.094 59.6554 38.9939H59.6639ZM84.0236 19V29.0267C84.9444 28.1098 86.0102 27.3796 87.2209 26.8448C88.4317 26.3099 89.7447 26.0382 91.1686 26.0382C92.5925 26.0382 94.0249 26.3099 95.3124 26.8617C96.5999 27.4136 97.7254 28.1607 98.6718 29.1031C99.6182 30.0455 100.369 31.1577 100.923 32.4482C101.477 33.7301 101.75 35.097 101.75 36.5403C101.75 37.9836 101.477 39.342 100.923 40.607C100.369 41.8805 99.6182 42.9842 98.6718 43.9266C97.7254 44.869 96.6084 45.6161 95.3124 46.168C94.0249 46.7198 92.6437 46.9915 91.1686 46.9915C89.6936 46.9915 88.4232 46.7198 87.1954 46.185C85.9676 45.6501 84.9018 44.92 83.9724 44.003V46.5161H80.0247V19H84.0151H84.0236ZM84.484 39.2486C84.8421 40.0891 85.3366 40.8193 85.9676 41.4475C86.5985 42.0758 87.3403 42.5767 88.1759 42.9418C89.02 43.3069 89.9238 43.4936 90.9043 43.4936C91.8848 43.4936 92.746 43.3069 93.5901 42.9418C94.4342 42.5767 95.1589 42.0758 95.7814 41.4475C96.4038 40.8193 96.8898 40.0807 97.2649 39.2486C97.6316 38.4081 97.8192 37.5082 97.8192 36.5318C97.8192 35.5555 97.6316 34.6471 97.2649 33.7981C96.8983 32.9491 96.4038 32.2019 95.7814 31.5737C95.1589 30.9454 94.4342 30.453 93.5901 30.0964C92.746 29.7398 91.8507 29.5616 90.9043 29.5616C89.9579 29.5616 89.0626 29.7398 88.2185 30.0964C87.3744 30.453 86.6412 30.9454 86.0102 31.5737C85.3793 32.2019 84.8762 32.9406 84.5096 33.7981C84.1429 34.6471 83.9554 35.564 83.9554 36.5318C83.9554 37.4997 84.1344 38.4081 84.4925 39.2486H84.484ZM104.009 32.4906C104.538 31.2341 105.263 30.1219 106.183 29.171C107.104 28.2201 108.196 27.4645 109.458 26.9127C110.719 26.3608 112.092 26.0891 113.567 26.0891C115.042 26.0891 116.355 26.3523 117.592 26.8787C118.828 27.4051 119.894 28.1267 120.789 29.0606C121.684 29.9945 122.383 31.0898 122.878 32.3633C123.381 33.6367 123.628 35.0206 123.628 36.5149V37.8138H107.241C107.369 38.6289 107.633 39.3845 108.034 40.0722C108.426 40.7683 108.92 41.3711 109.517 41.8805C110.106 42.3899 110.779 42.789 111.529 43.0776C112.28 43.3663 113.073 43.5106 113.917 43.5106C116.313 43.5106 118.248 42.5258 119.723 40.5646L122.605 42.6871C121.608 44.02 120.371 45.0728 118.896 45.8369C117.421 46.601 115.767 46.9745 113.917 46.9745C112.416 46.9745 111.018 46.7113 109.713 46.185C108.409 45.6586 107.275 44.9284 106.32 43.9861C105.365 43.0437 104.606 41.9315 104.052 40.6665C103.498 39.4015 103.225 38.0091 103.225 36.5149C103.225 35.097 103.489 33.7641 104.018 32.5076L104.009 32.4906ZM109.56 30.9369C108.443 31.8708 107.701 33.1104 107.326 34.6555H119.612C119.271 33.1104 118.538 31.8708 117.421 30.9369C116.304 30.003 114.991 29.5446 113.491 29.5446C111.99 29.5446 110.677 30.0115 109.56 30.9369ZM131.106 31.3869C130.262 32.3038 129.844 33.5518 129.844 35.1225V46.5246H125.854V26.4712H129.801V28.9503C130.304 28.1352 130.952 27.4985 131.754 27.023C132.555 26.5476 133.51 26.3184 134.619 26.3184H136V30.0115H134.337C133.024 30.0115 131.941 30.47 131.097 31.3869H131.106Z" fill="white"/>
</g>
<defs>
<clipPath id="clip0_26587_107921">
<rect width="81" height="28" fill="white" transform="translate(55 19)"/>
</clipPath>
</defs>
</svg>
