<svg width="190" height="65" viewBox="0 0 190 65" fill="none" xmlns="http://www.w3.org/2000/svg">
<g clip-path="url(#clip0_26587_107926)">
<path d="M62.1536 20.9588C62.1536 20.9588 62.1684 20.9074 62.1684 20.8927L62.2055 20.6282H60.5242C59.006 20.6135 58.5468 20.6208 58.5024 20.6576C58.4801 20.6723 57.9617 22.6486 57.0285 26.2192C56.5841 27.9237 56.2064 29.2829 56.199 29.2461C56.1916 29.2094 55.651 27.2625 55.014 24.9261C54.3771 22.5898 53.8439 20.6649 53.829 20.6502C53.8068 20.6282 51.7775 20.6208 50.1259 20.6355C49.8889 20.6355 49.7556 20.1727 52.2515 28.0559C52.5996 29.1506 53.118 30.6935 53.3995 31.487C53.7328 32.4053 53.9698 33.118 54.1253 33.7057C54.4067 34.8298 54.4215 35.5425 54.3549 36.3653C54.2808 37.3204 54.2734 44.0429 54.3401 44.1604C54.3919 44.2486 57.5766 44.2853 57.8728 44.2045C57.9173 44.1898 57.9543 44.1457 57.9765 43.8886C58.0506 43.6682 58.058 42.8012 58.058 39.1866V34.5727L58.2579 33.9335C58.3913 33.5147 58.7245 32.42 58.9986 31.5017C59.2726 30.5833 59.6059 29.4739 59.7392 29.0478C60.939 25.1686 62.087 21.3555 62.1166 21.1351L62.1388 20.9588H62.1536Z" fill="white"/>
<path d="M79.9432 26.5558V26.7982H79.9062L79.884 33.4399L79.8618 39.8831L79.3433 40.4121C78.7582 40.9999 78.2917 41.2276 77.8695 41.1174C77.4103 40.9999 77.4251 41.1836 77.3807 33.5648L77.3437 26.5558H74.0035V26.7982H73.9664V34.4023C73.9664 39.8342 74.1047 42.8219 74.3812 43.3656C74.7145 44.0195 75.1959 44.3354 76.0254 44.4456C77.1141 44.5925 78.2917 44.1003 79.3878 43.0497L79.8618 42.5942V43.3803C79.8618 44.0636 79.884 44.1738 80.0025 44.2105C80.2099 44.2693 82.7354 44.2693 83.0094 44.2105L83.239 44.1664V43.9313H83.276V26.5117L79.9358 26.5558H79.9432Z" fill="white"/>
<path d="M71.4706 29.9871C71.1521 28.6426 70.5596 27.7316 69.582 27.1071C68.0489 26.1226 66.2936 26.0198 64.6717 26.8132C63.4867 27.3937 62.7239 28.3561 62.3313 29.7667C62.2869 29.9357 62.2499 30.0753 62.2202 30.2884C62.124 30.7879 62.1091 31.53 62.0795 34.9977C62.0425 40.339 62.1017 40.9781 62.7757 42.1904C63.4348 43.3806 64.8124 44.2549 66.3085 44.4312C66.7602 44.4826 67.6712 44.4018 68.197 44.2549C69.3894 43.9243 70.53 42.9912 71.0336 41.9332C71.2484 41.4777 71.3817 41.1545 71.4632 40.5741C71.6113 39.7806 71.6187 38.4949 71.6187 35.2181C71.6187 31.0377 71.6039 30.5822 71.4632 29.9871H71.4706ZM67.6564 40.8753C67.3749 41.0884 66.8861 41.1765 66.4862 41.0957C66.1825 41.0296 65.7678 40.552 65.6345 40.1186C65.479 39.5749 65.4641 32.0369 65.5975 30.5528C65.8196 29.8108 66.4566 29.4288 67.1454 29.6124C67.686 29.7594 67.96 30.09 68.1156 30.7879C68.2341 31.3096 68.2489 31.9488 68.2193 35.7545C68.2044 38.2745 68.197 39.5088 68.1082 40.17C68.0267 40.5888 67.886 40.699 67.649 40.8753H67.6564Z" fill="white"/>
<path d="M131.483 33.7779H133.098L133.068 32.3232C133.046 30.9934 133.024 30.8391 132.846 30.4791C132.564 29.906 132.15 29.6562 131.483 29.6562C130.691 29.6562 130.187 30.0383 129.943 30.8244C129.839 31.155 129.735 33.4473 129.809 33.6456C129.854 33.7558 130.083 33.7779 131.476 33.7779H131.483Z" fill="white"/>
<path d="M120.692 30.4807C120.477 30.0472 120.077 29.8415 119.611 29.8562C119.248 29.8709 118.848 30.0178 118.463 30.3117L118.174 30.5321V40.9574L118.463 41.1778C119.115 41.6701 119.833 41.7729 120.329 41.4497C120.522 41.3174 120.655 41.1411 120.751 40.8546C120.877 40.4872 120.892 40.0097 120.877 35.6236C120.863 31.0538 120.848 30.7819 120.7 30.4807H120.692Z" fill="white"/>
<path d="M140.719 25.7781C140.4 21.9503 140.141 20.7087 139.348 19.1144C138.297 16.9985 136.771 15.8891 134.601 15.6393C132.927 15.4483 126.617 15.1838 120.781 15.0515C110.672 14.8311 94.0595 15.2572 91.9339 15.7936C90.9563 16.0434 90.2157 16.4621 89.4528 17.2189C88.1123 18.5413 87.3125 20.4442 86.994 23.067C86.2608 29.0621 86.246 36.3136 86.9496 42.5291C87.2532 45.2034 87.8827 46.9372 89.0529 48.3699C89.7861 49.2662 91.0526 50.023 92.1783 50.2507C92.9708 50.4123 96.9405 50.6328 102.725 50.8385C103.584 50.8679 105.865 50.9193 107.791 50.956C111.805 51.0295 119.189 50.9854 123.41 50.8679C126.247 50.787 131.424 50.5813 132.394 50.5079C132.668 50.4858 133.298 50.4491 133.794 50.4197C135.468 50.3242 136.534 49.9789 137.534 49.2001C138.83 48.1936 139.83 46.3274 140.252 44.1381C140.652 42.0662 140.919 38.3781 140.978 34.1976C141.022 30.7005 140.963 28.8123 140.711 25.7781H140.719ZM100.473 24.3968L98.5921 24.4189L98.5106 44.285L96.8813 44.307C95.6222 44.3217 95.2371 44.307 95.2075 44.2262C95.1852 44.1674 95.163 39.6932 95.1482 34.2711L95.126 24.4189L91.4599 24.3748V21.267L102.295 21.3111L102.34 24.3748L100.458 24.3968H100.473ZM111.99 35.7846V44.3291H109.02V43.4328C109.02 42.7568 108.99 42.5364 108.916 42.5364C108.857 42.5364 108.59 42.7568 108.316 43.036C107.731 43.6311 107.035 44.1013 106.443 44.3217C105.213 44.7772 104.05 44.5128 103.547 43.6605C103.095 42.8817 103.08 42.7128 103.08 34.6458V27.2401H106.043L106.065 34.2123C106.087 41.0597 106.087 41.1846 106.258 41.4638C106.48 41.8311 106.813 41.934 107.339 41.787C107.65 41.6989 107.865 41.5519 108.368 41.0523L109.005 40.4205V27.2401H111.975V35.7846H111.99ZM123.558 43.1021C123.299 43.6825 122.714 44.2483 122.24 44.3879C120.996 44.7552 119.996 44.454 118.841 43.3813C118.485 43.0507 118.152 42.7789 118.1 42.7789C118.041 42.7789 118.004 43.0434 118.004 43.5576V44.3364H115.034V21.267H118.004V25.0287C118.004 27.1005 118.033 28.7903 118.063 28.7903C118.093 28.7903 118.411 28.5185 118.759 28.1805C119.559 27.4091 120.233 27.0785 121.085 27.0123C122.603 26.9021 123.507 27.6736 123.921 29.4442C124.047 29.9952 124.062 30.627 124.062 35.7405C124.062 41.9707 124.062 41.9928 123.558 43.1021ZM136.112 39.6858C136.082 40.325 136.008 41.0597 135.934 41.3242C135.519 42.845 134.423 43.9176 132.838 44.3585C130.698 44.9536 128.35 43.9764 127.41 42.1177C126.884 41.0744 126.862 40.8613 126.862 35.7479C126.862 31.5748 126.876 31.0679 127.01 30.4948C127.387 28.8858 128.335 27.8425 129.935 27.2621C130.394 27.0932 130.883 27.0123 131.365 26.9977C133.09 26.9609 134.801 27.8866 135.519 29.3781C136.001 30.3919 136.06 30.8181 136.112 33.6687L136.156 36.2254L129.831 36.2695L129.809 37.9887C129.78 40.4132 129.943 41.1552 130.602 41.596C131.157 41.9634 132.009 41.9413 132.468 41.5372C132.905 41.1552 133.024 40.7511 133.068 39.5683L133.105 38.525H136.164L136.112 39.6932V39.6858Z" fill="white"/>
</g>
<defs>
<clipPath id="clip0_26587_107926">
<rect width="91" height="36" fill="white" transform="translate(50 15)"/>
</clipPath>
</defs>
</svg>
