<svg width="15" height="17" viewBox="0 0 15 17" fill="none" xmlns="http://www.w3.org/2000/svg">
<g id="_&#229;&#155;&#190;&#229;&#177;&#130;_1" clip-path="url(#clip0_24163_23019)">
<path id="Vector" d="M10.8165 0L10.048 7.49746L8.73423 1.17553L4.61888 2.07192L5.93261 8.39385L0 9.68339L1.04871 14.7315L11.4791 17L13.8642 11.5155L15 0.452128L10.8165 0ZM7.08354 9.64015H7.09112C7.16305 9.64015 7.23877 9.65587 7.30313 9.68733C7.44321 9.75023 7.68551 9.89177 7.73473 10.1041C7.80666 10.4107 7.73473 10.6702 7.52272 10.8707C7.30692 11.0752 7.02297 11.0555 6.72388 10.9533C6.42479 10.8511 6.28849 10.4776 6.40207 10.0254C6.48536 9.69126 6.88667 9.64015 7.08733 9.63622L7.08354 9.64015ZM9.90788 10.0294C10.2145 10.0215 10.4758 10.163 10.6234 10.4147C10.7711 10.6663 10.6954 10.9454 10.5401 11.2246C10.3849 11.5037 9.97224 11.5391 9.57092 11.3386C9.29834 11.201 9.30212 10.855 9.32862 10.6427C9.34377 10.5208 9.39298 10.4147 9.46113 10.3242C9.55957 10.1984 9.72236 10.0372 9.90788 10.0294Z" fill="#00CCBC"/>
</g>
<defs>
<clipPath id="clip0_24163_23019">
<rect width="15" height="17" fill="white"/>
</clipPath>
</defs>
</svg>
